<svg width="17" height="17" viewBox="0 0 17 17" fill="none" xmlns="http://www.w3.org/2000/svg">
<path fill-rule="evenodd" clip-rule="evenodd" d="M7.93415 14.6025C11.5239 14.6025 14.4341 11.6923 14.4341 8.10243C14.4341 4.51256 11.5239 1.60242 7.93415 1.60242C4.34424 1.60242 1.43408 4.51256 1.43408 8.10243C1.43408 11.6923 4.34424 14.6025 7.93415 14.6025Z" fill="#DA71C6"/>
<path fill-rule="evenodd" clip-rule="evenodd" d="M5.0861 4.63098C4.93649 4.63098 4.78751 4.68928 4.67399 4.80286L4.66419 4.81287C4.43713 5.03991 4.43713 5.412 4.66419 5.63904L7.17786 8.15269L4.66419 10.6703C4.4372 10.8973 4.4372 11.2655 4.66419 11.4926L4.67399 11.5063C4.90096 11.7333 5.27312 11.7333 5.50016 11.5063L8.01383 8.99258L10.5275 11.5063C10.7545 11.7333 11.1266 11.7333 11.3537 11.5063L11.3635 11.4926C11.5905 11.2656 11.5905 10.8973 11.3635 10.6703L8.84981 8.15269L11.3635 5.63904C11.5905 5.412 11.5905 5.03984 11.3635 4.81287L11.3537 4.80286C11.1266 4.57588 10.7545 4.57587 10.5275 4.80286L8.01383 7.31653L5.50016 4.80286C5.38664 4.68934 5.2357 4.63098 5.0861 4.63098Z" fill="#242933" fill-opacity="0.4"/>
</svg>
